<svg width="17" height="17" viewBox="0 0 17 17" fill="none" xmlns="http://www.w3.org/2000/svg">
<circle cx="8.5" cy="8.5" r="8.5" fill="url(#paint0_linear_9_6196)"/>
<g clip-path="url(#clip0_9_6196)">
<path d="M8.5 15C12.0899 15 15 12.0899 15 8.5C15 4.91015 12.0899 2 8.5 2C4.91015 2 2 4.91015 2 8.5C2 12.0899 4.91015 15 8.5 15Z" fill="#0088CC"/>
<path fill-rule="evenodd" clip-rule="evenodd" d="M5.76529 5H11.2438C11.4532 5 11.6276 5.03493 11.837 5.13974C12.0813 5.24454 12.2208 5.41921 12.2906 5.55895C12.2906 5.55895 12.2906 5.59389 12.3255 5.59389C12.4302 5.76856 12.5 5.97817 12.5 6.22271C12.5 6.43231 12.4651 6.64192 12.3255 6.85153L8.87094 12.7904C8.80115 12.9301 8.66157 13 8.48709 13C8.34751 13 8.20793 12.9301 8.10325 12.7904L4.71845 6.85153C4.64866 6.71179 4.50908 6.53712 4.50908 6.25764C4.47418 6.0131 4.54397 5.80349 4.64866 5.59389C4.75334 5.38428 4.92782 5.20961 5.17208 5.13974C5.38145 5 5.62571 5 5.76529 5ZM8.06835 5.83843H5.76529C5.62571 5.83843 5.55592 5.83843 5.52103 5.87336C5.45124 5.9083 5.41634 5.94323 5.38145 6.0131C5.34655 6.04803 5.34655 6.1179 5.34655 6.18777C5.34655 6.22271 5.38145 6.25764 5.45124 6.39738L8.06835 10.9389V5.83843ZM8.90583 5.83843V10.9738L11.5578 6.39738C11.5927 6.32751 11.5927 6.25764 11.5927 6.18777C11.5927 6.1179 11.5927 6.04803 11.5578 6.0131C11.5229 5.97817 11.5229 5.94323 11.488 5.94323L11.4532 5.9083C11.3834 5.87336 11.3136 5.87336 11.2089 5.87336H8.90583V5.83843Z" fill="white"/>
</g>
<defs>
<linearGradient id="paint0_linear_9_6196" x1="8.5" y1="0" x2="8.5" y2="17" gradientUnits="userSpaceOnUse">
<stop stop-color="white"/>
<stop offset="1" stop-color="#FFF7C8"/>
</linearGradient>
<clipPath id="clip0_9_6196">
<rect width="13" height="13" fill="white" transform="translate(2 2)"/>
</clipPath>
</defs>
</svg>
