<svg width="32" height="32" viewBox="0 0 32 32" fill="none" xmlns="http://www.w3.org/2000/svg">
<g clip-path="url(#clip0_9_6229)">
<path d="M16 32C24.8366 32 32 24.8366 32 16C32 7.16344 24.8366 0 16 0C7.16344 0 0 7.16344 0 16C0 24.8366 7.16344 32 16 32Z" fill="#0088CC"/>
<path fill-rule="evenodd" clip-rule="evenodd" d="M9.26844 7.38464H22.754C23.2693 7.38464 23.6988 7.47064 24.2142 7.72861C24.8154 7.98659 25.159 8.41656 25.3308 8.76053C25.3308 8.76053 25.3308 8.84652 25.4167 8.84652C25.6744 9.27648 25.8462 9.79244 25.8462 10.3944C25.8462 10.9103 25.7603 11.4263 25.4167 11.9423L16.9131 26.561C16.7413 26.905 16.3977 27.077 15.9682 27.077C15.6247 27.077 15.2811 26.905 15.0234 26.561L6.69158 11.9423C6.51979 11.5983 6.17621 11.1683 6.17621 10.4804C6.09032 9.87843 6.26211 9.36247 6.51979 8.84652C6.77748 8.33056 7.20695 7.9006 7.80822 7.72861C8.32359 7.38464 8.92486 7.38464 9.26844 7.38464ZM14.9375 9.44847H9.26844C8.92486 9.44847 8.75306 9.44847 8.66717 9.53446C8.49538 9.62045 8.40948 9.70644 8.32359 9.87843C8.23769 9.96442 8.23769 10.1364 8.23769 10.3084C8.23769 10.3944 8.32359 10.4804 8.49538 10.8243L14.9375 22.0034V9.44847ZM16.999 9.44847V22.0894L23.527 10.8243C23.6129 10.6524 23.6129 10.4804 23.6129 10.3084C23.6129 10.1364 23.6129 9.96442 23.527 9.87843C23.4411 9.79244 23.4411 9.70644 23.3552 9.70644L23.2693 9.62045C23.0975 9.53446 22.9257 9.53446 22.6681 9.53446H16.999V9.44847Z" fill="white"/>
</g>
<defs>
<clipPath id="clip0_9_6229">
<rect width="32" height="32" fill="white"/>
</clipPath>
</defs>
</svg>
