<svg width="20" height="20" viewBox="0 0 20 20" fill="none" xmlns="http://www.w3.org/2000/svg">
<g filter="url(#filter0_d_9_6207)">
<path fill-rule="evenodd" clip-rule="evenodd" d="M16.3335 8.33325H12.3335V4.33325C12.3335 3.22825 11.438 2.33325 10.3335 2.33325C9.229 2.33325 8.3335 3.22825 8.3335 4.33325V8.33325H4.3335C3.229 8.33325 2.3335 9.22825 2.3335 10.3333C2.3335 11.4383 3.229 12.3333 4.3335 12.3333H8.3335V16.3333C8.3335 17.4383 9.229 18.3333 10.3335 18.3333C11.438 18.3333 12.3335 17.4383 12.3335 16.3333V12.3333H16.3335C17.438 12.3333 18.3335 11.4383 18.3335 10.3333C18.3335 9.22825 17.438 8.33325 16.3335 8.33325Z" fill="url(#paint0_linear_9_6207)"/>
</g>
<defs>
<filter id="filter0_d_9_6207" x="2.3335" y="2.33325" width="16" height="17" filterUnits="userSpaceOnUse" color-interpolation-filters="sRGB">
<feFlood flood-opacity="0" result="BackgroundImageFix"/>
<feColorMatrix in="SourceAlpha" type="matrix" values="0 0 0 0 0 0 0 0 0 0 0 0 0 0 0 0 0 0 127 0" result="hardAlpha"/>
<feOffset dy="1"/>
<feComposite in2="hardAlpha" operator="out"/>
<feColorMatrix type="matrix" values="0 0 0 0 0 0 0 0 0 0 0 0 0 0 0 0 0 0 0.15 0"/>
<feBlend mode="normal" in2="BackgroundImageFix" result="effect1_dropShadow_9_6207"/>
<feBlend mode="normal" in="SourceGraphic" in2="effect1_dropShadow_9_6207" result="shape"/>
</filter>
<linearGradient id="paint0_linear_9_6207" x1="10.3335" y1="2.33325" x2="10.3335" y2="18.3333" gradientUnits="userSpaceOnUse">
<stop stop-color="white"/>
<stop offset="1" stop-color="#FFF7C8"/>
</linearGradient>
</defs>
</svg>
