<svg width="20" height="20" viewBox="0 0 20 20" fill="none" xmlns="http://www.w3.org/2000/svg">
<g filter="url(#filter0_d_9_7494)">
<path d="M16.5833 11.8333C17.2737 11.8333 17.8333 12.393 17.8333 13.0833V16.4167C17.8333 17.5672 16.9006 18.5 15.75 18.5H4.08333C2.93274 18.5 2 17.5672 2 16.4167V13.0833C2 12.393 2.55964 11.8333 3.25 11.8333C3.94036 11.8333 4.5 12.393 4.5 13.0833V16H15.3333V13.0833C15.3333 12.393 15.893 11.8333 16.5833 11.8333ZM9.91667 1C10.607 1 11.1667 1.55964 11.1667 2.25V9.77958L12.5683 8.37792C13.0565 7.8898 13.8479 7.8898 14.3361 8.37792C14.8243 8.86608 14.8243 9.65758 14.3361 10.1458L10.9478 13.5339C10.3783 14.1035 9.455 14.1035 8.8855 13.5339L5.49725 10.1458C5.00909 9.65758 5.00909 8.86608 5.49725 8.37792C5.98541 7.8898 6.77686 7.8898 7.26502 8.37792L8.66667 9.77958V2.25C8.66667 1.55964 9.22633 1 9.91667 1Z" fill="url(#paint0_linear_9_7494)"/>
</g>
<defs>
<filter id="filter0_d_9_7494" x="2" y="1" width="15.8334" height="18.5" filterUnits="userSpaceOnUse" color-interpolation-filters="sRGB">
<feFlood flood-opacity="0" result="BackgroundImageFix"/>
<feColorMatrix in="SourceAlpha" type="matrix" values="0 0 0 0 0 0 0 0 0 0 0 0 0 0 0 0 0 0 127 0" result="hardAlpha"/>
<feOffset dy="1"/>
<feComposite in2="hardAlpha" operator="out"/>
<feColorMatrix type="matrix" values="0 0 0 0 0 0 0 0 0 0 0 0 0 0 0 0 0 0 0.15 0"/>
<feBlend mode="normal" in2="BackgroundImageFix" result="effect1_dropShadow_9_7494"/>
<feBlend mode="normal" in="SourceGraphic" in2="effect1_dropShadow_9_7494" result="shape"/>
</filter>
<linearGradient id="paint0_linear_9_7494" x1="9.91667" y1="1" x2="9.91667" y2="18.5" gradientUnits="userSpaceOnUse">
<stop stop-color="white"/>
<stop offset="1" stop-color="#FFF7C8"/>
</linearGradient>
</defs>
</svg>
