<svg width="50" height="50" viewBox="0 0 50 50" fill="none" xmlns="http://www.w3.org/2000/svg">
<g filter="url(#filter0_i_26_168)">
<circle cx="25" cy="25" r="25" fill="url(#paint0_linear_26_168)"/>
</g>
<ellipse cx="15.3959" cy="10.4673" rx="6.34286" ry="3.80572" transform="rotate(-30 15.3959 10.4673)" fill="white" fill-opacity="0.7"/>
<ellipse cx="36.0177" cy="41.3876" rx="4.30322" ry="2.58193" transform="rotate(-30 36.0177 41.3876)" fill="white" fill-opacity="0.3"/>
<g filter="url(#filter1_d_26_168)">
<path d="M12 32.5816V34.75C12 36.5426 16.3672 38 21.75 38C27.1328 38 31.5 36.5426 31.5 34.75V32.5816C29.4027 34.0594 25.5687 34.75 21.75 34.75C17.9313 34.75 14.0973 34.0594 12 32.5816ZM28.25 18.5C33.6328 18.5 38 17.0426 38 15.25C38 13.4574 33.6328 12 28.25 12C22.8672 12 18.5 13.4574 18.5 15.25C18.5 17.0426 22.8672 18.5 28.25 18.5ZM12 27.2547V29.875C12 31.6676 16.3672 33.125 21.75 33.125C27.1328 33.125 31.5 31.6676 31.5 29.875V27.2547C29.4027 28.9812 25.5637 29.875 21.75 29.875C17.9363 29.875 14.0973 28.9812 12 27.2547ZM33.125 27.8133C36.0348 27.2496 38 26.2035 38 25V22.8316C36.8219 23.6645 35.0902 24.2332 33.125 24.5836V27.8133ZM21.75 20.125C16.3672 20.125 12 21.943 12 24.1875C12 26.432 16.3672 28.25 21.75 28.25C27.1328 28.25 31.5 26.432 31.5 24.1875C31.5 21.943 27.1328 20.125 21.75 20.125ZM32.8863 22.984C35.9332 22.4355 38 21.359 38 20.125V17.9566C36.1973 19.2313 33.0996 19.9168 29.8395 20.0793C31.3375 20.8055 32.4395 21.7805 32.8863 22.984Z" fill="url(#paint1_linear_26_168)"/>
</g>
<defs>
<filter id="filter0_i_26_168" x="0" y="0" width="50" height="50" filterUnits="userSpaceOnUse" color-interpolation-filters="sRGB">
<feFlood flood-opacity="0" result="BackgroundImageFix"/>
<feBlend mode="normal" in="SourceGraphic" in2="BackgroundImageFix" result="shape"/>
<feColorMatrix in="SourceAlpha" type="matrix" values="0 0 0 0 0 0 0 0 0 0 0 0 0 0 0 0 0 0 127 0" result="hardAlpha"/>
<feOffset/>
<feGaussianBlur stdDeviation="2.5"/>
<feComposite in2="hardAlpha" operator="arithmetic" k2="-1" k3="1"/>
<feColorMatrix type="matrix" values="0 0 0 0 0.387565 0 0 0 0 0.85434 0 0 0 0 1 0 0 0 1 0"/>
<feBlend mode="normal" in2="shape" result="effect1_innerShadow_26_168"/>
</filter>
<filter id="filter1_d_26_168" x="12" y="12" width="26" height="27" filterUnits="userSpaceOnUse" color-interpolation-filters="sRGB">
<feFlood flood-opacity="0" result="BackgroundImageFix"/>
<feColorMatrix in="SourceAlpha" type="matrix" values="0 0 0 0 0 0 0 0 0 0 0 0 0 0 0 0 0 0 127 0" result="hardAlpha"/>
<feOffset dy="1"/>
<feComposite in2="hardAlpha" operator="out"/>
<feColorMatrix type="matrix" values="0 0 0 0 0 0 0 0 0 0 0 0 0 0 0 0 0 0 0.15 0"/>
<feBlend mode="normal" in2="BackgroundImageFix" result="effect1_dropShadow_26_168"/>
<feBlend mode="normal" in="SourceGraphic" in2="effect1_dropShadow_26_168" result="shape"/>
</filter>
<linearGradient id="paint0_linear_26_168" x1="25" y1="0" x2="25" y2="50" gradientUnits="userSpaceOnUse">
<stop stop-color="#46D3FF"/>
<stop offset="1" stop-color="#228CCC"/>
</linearGradient>
<linearGradient id="paint1_linear_26_168" x1="25" y1="12" x2="25" y2="38" gradientUnits="userSpaceOnUse">
<stop stop-color="white"/>
<stop offset="1" stop-color="#FFF7C8"/>
</linearGradient>
</defs>
</svg>
