<svg width="60" height="33" viewBox="0 0 60 33" fill="none" xmlns="http://www.w3.org/2000/svg">
<g filter="url(#filter0_d_9_5816)">
<path d="M0 9.98313C0 5.98256 2.94895 2.59884 6.91929 2.10793C14.0714 1.22362 24.8908 0 30 0C35.1092 0 45.9286 1.22362 53.0807 2.10793C57.0511 2.59884 60 5.98256 60 9.98313V22.0169C60 26.0174 57.051 29.4012 53.0807 29.8921C45.9286 30.7764 35.1092 32 30 32C24.8908 32 14.0714 30.7764 6.91928 29.8921C2.94895 29.4012 0 26.0174 0 22.0169V9.98313Z" fill="url(#paint0_linear_9_5816)"/>
</g>
<defs>
<filter id="filter0_d_9_5816" x="0" y="0" width="60" height="33" filterUnits="userSpaceOnUse" color-interpolation-filters="sRGB">
<feFlood flood-opacity="0" result="BackgroundImageFix"/>
<feColorMatrix in="SourceAlpha" type="matrix" values="0 0 0 0 0 0 0 0 0 0 0 0 0 0 0 0 0 0 127 0" result="hardAlpha"/>
<feOffset dy="1"/>
<feComposite in2="hardAlpha" operator="out"/>
<feColorMatrix type="matrix" values="0 0 0 0 0 0 0 0 0 0 0 0 0 0 0 0 0 0 0.2 0"/>
<feBlend mode="normal" in2="BackgroundImageFix" result="effect1_dropShadow_9_5816"/>
<feBlend mode="normal" in="SourceGraphic" in2="effect1_dropShadow_9_5816" result="shape"/>
</filter>
<linearGradient id="paint0_linear_9_5816" x1="30" y1="0" x2="30" y2="32" gradientUnits="userSpaceOnUse">
<stop stop-color="#FFD8A6"/>
<stop offset="1" stop-color="#FFE8CB"/>
</linearGradient>
</defs>
</svg>
