<svg width="24" height="24" viewBox="0 0 24 24" fill="none" xmlns="http://www.w3.org/2000/svg">
<g filter="url(#filter0_i_20_8844)">
<circle cx="12" cy="12" r="12" fill="url(#paint0_linear_20_8844)"/>
</g>
<ellipse cx="7.39026" cy="5.02432" rx="3.04457" ry="1.82674" transform="rotate(-30 7.39026 5.02432)" fill="white" fill-opacity="0.7"/>
<ellipse cx="17.2884" cy="19.8661" rx="2.06555" ry="1.23933" transform="rotate(-30 17.2884 19.8661)" fill="white" fill-opacity="0.3"/>
<g clip-path="url(#clip0_20_8844)">
<g filter="url(#filter1_d_20_8844)">
<path fill-rule="evenodd" clip-rule="evenodd" d="M17.25 10.25H13.75V6.75C13.75 5.78312 12.9664 5 12 5C11.0336 5 10.25 5.78312 10.25 6.75V10.25H6.75C5.78356 10.25 5 11.0331 5 12C5 12.9669 5.78356 13.75 6.75 13.75H10.25V17.25C10.25 18.2169 11.0336 19 12 19C12.9664 19 13.75 18.2169 13.75 17.25V13.75H17.25C18.2164 13.75 19 12.9669 19 12C19 11.0331 18.2164 10.25 17.25 10.25Z" fill="url(#paint1_linear_20_8844)"/>
</g>
</g>
<defs>
<filter id="filter0_i_20_8844" x="0" y="0" width="24" height="24" filterUnits="userSpaceOnUse" color-interpolation-filters="sRGB">
<feFlood flood-opacity="0" result="BackgroundImageFix"/>
<feBlend mode="normal" in="SourceGraphic" in2="BackgroundImageFix" result="shape"/>
<feColorMatrix in="SourceAlpha" type="matrix" values="0 0 0 0 0 0 0 0 0 0 0 0 0 0 0 0 0 0 127 0" result="hardAlpha"/>
<feOffset/>
<feGaussianBlur stdDeviation="2.5"/>
<feComposite in2="hardAlpha" operator="arithmetic" k2="-1" k3="1"/>
<feColorMatrix type="matrix" values="0 0 0 0 0.387565 0 0 0 0 0.85434 0 0 0 0 1 0 0 0 1 0"/>
<feBlend mode="normal" in2="shape" result="effect1_innerShadow_20_8844"/>
</filter>
<filter id="filter1_d_20_8844" x="5" y="5" width="14" height="15" filterUnits="userSpaceOnUse" color-interpolation-filters="sRGB">
<feFlood flood-opacity="0" result="BackgroundImageFix"/>
<feColorMatrix in="SourceAlpha" type="matrix" values="0 0 0 0 0 0 0 0 0 0 0 0 0 0 0 0 0 0 127 0" result="hardAlpha"/>
<feOffset dy="1"/>
<feComposite in2="hardAlpha" operator="out"/>
<feColorMatrix type="matrix" values="0 0 0 0 0 0 0 0 0 0 0 0 0 0 0 0 0 0 0.15 0"/>
<feBlend mode="normal" in2="BackgroundImageFix" result="effect1_dropShadow_20_8844"/>
<feBlend mode="normal" in="SourceGraphic" in2="effect1_dropShadow_20_8844" result="shape"/>
</filter>
<linearGradient id="paint0_linear_20_8844" x1="12" y1="0" x2="12" y2="24" gradientUnits="userSpaceOnUse">
<stop stop-color="#46F4FF"/>
<stop offset="1" stop-color="#228FCC"/>
</linearGradient>
<linearGradient id="paint1_linear_20_8844" x1="12" y1="5" x2="12" y2="19" gradientUnits="userSpaceOnUse">
<stop stop-color="white"/>
<stop offset="1" stop-color="#FFF7C8"/>
</linearGradient>
<clipPath id="clip0_20_8844">
<rect width="14" height="14" fill="white" transform="translate(5 5)"/>
</clipPath>
</defs>
</svg>
