<svg width="52" height="23" viewBox="0 0 52 23" fill="none" xmlns="http://www.w3.org/2000/svg">
<g filter="url(#filter0_d_9_5905)">
<path d="M0 6.8634C0 4.11301 2.55576 1.7867 5.99671 1.4492C12.1952 0.84124 21.572 0 26 0C30.428 0 39.8048 0.84124 46.0033 1.4492C49.4442 1.7867 52 4.11301 52 6.8634V15.1366C52 17.887 49.4442 20.2133 46.0033 20.5508C39.8048 21.1588 30.428 22 26 22C21.572 22 12.1952 21.1588 5.99671 20.5508C2.55576 20.2133 0 17.887 0 15.1366V6.8634Z" fill="url(#paint0_linear_9_5905)"/>
</g>
<defs>
<filter id="filter0_d_9_5905" x="0" y="0" width="52" height="23" filterUnits="userSpaceOnUse" color-interpolation-filters="sRGB">
<feFlood flood-opacity="0" result="BackgroundImageFix"/>
<feColorMatrix in="SourceAlpha" type="matrix" values="0 0 0 0 0 0 0 0 0 0 0 0 0 0 0 0 0 0 127 0" result="hardAlpha"/>
<feOffset dy="1"/>
<feComposite in2="hardAlpha" operator="out"/>
<feColorMatrix type="matrix" values="0 0 0 0 0 0 0 0 0 0 0 0 0 0 0 0 0 0 0.2 0"/>
<feBlend mode="normal" in2="BackgroundImageFix" result="effect1_dropShadow_9_5905"/>
<feBlend mode="normal" in="SourceGraphic" in2="effect1_dropShadow_9_5905" result="shape"/>
</filter>
<linearGradient id="paint0_linear_9_5905" x1="26" y1="0" x2="26" y2="22" gradientUnits="userSpaceOnUse">
<stop stop-color="#FFD8A6"/>
<stop offset="1" stop-color="#FFE8CB"/>
</linearGradient>
</defs>
</svg>
