<svg width="32" height="32" viewBox="0 0 32 32" fill="none" xmlns="http://www.w3.org/2000/svg">
<g filter="url(#filter0_i_40_9)">
<circle cx="16" cy="16" r="16" fill="url(#paint0_linear_40_9)"/>
</g>
<ellipse cx="9.85376" cy="6.69913" rx="4.05943" ry="2.43566" transform="rotate(-30 9.85376 6.69913)" fill="white" fill-opacity="0.7"/>
<ellipse cx="23.0512" cy="26.4881" rx="2.75406" ry="1.65244" transform="rotate(-30 23.0512 26.4881)" fill="white" fill-opacity="0.3"/>
<g clip-path="url(#clip0_40_9)">
<g filter="url(#filter1_d_40_9)">
<path fill-rule="evenodd" clip-rule="evenodd" d="M22.3337 14.3333H18.3337V10.3333C18.3337 9.22825 17.4382 8.33325 16.3337 8.33325C15.2292 8.33325 14.3337 9.22825 14.3337 10.3333V14.3333H10.3337C9.22924 14.3333 8.33374 15.2283 8.33374 16.3333C8.33374 17.4383 9.22924 18.3333 10.3337 18.3333H14.3337V22.3333C14.3337 23.4383 15.2292 24.3333 16.3337 24.3333C17.4382 24.3333 18.3337 23.4383 18.3337 22.3333V18.3333H22.3337C23.4382 18.3333 24.3337 17.4383 24.3337 16.3333C24.3337 15.2283 23.4382 14.3333 22.3337 14.3333Z" fill="url(#paint1_linear_40_9)"/>
</g>
</g>
<defs>
<filter id="filter0_i_40_9" x="0" y="0" width="32" height="32" filterUnits="userSpaceOnUse" color-interpolation-filters="sRGB">
<feFlood flood-opacity="0" result="BackgroundImageFix"/>
<feBlend mode="normal" in="SourceGraphic" in2="BackgroundImageFix" result="shape"/>
<feColorMatrix in="SourceAlpha" type="matrix" values="0 0 0 0 0 0 0 0 0 0 0 0 0 0 0 0 0 0 127 0" result="hardAlpha"/>
<feOffset/>
<feGaussianBlur stdDeviation="2.5"/>
<feComposite in2="hardAlpha" operator="arithmetic" k2="-1" k3="1"/>
<feColorMatrix type="matrix" values="0 0 0 0 0.387565 0 0 0 0 0.85434 0 0 0 0 1 0 0 0 1 0"/>
<feBlend mode="normal" in2="shape" result="effect1_innerShadow_40_9"/>
</filter>
<filter id="filter1_d_40_9" x="8.33374" y="8.33325" width="16" height="17" filterUnits="userSpaceOnUse" color-interpolation-filters="sRGB">
<feFlood flood-opacity="0" result="BackgroundImageFix"/>
<feColorMatrix in="SourceAlpha" type="matrix" values="0 0 0 0 0 0 0 0 0 0 0 0 0 0 0 0 0 0 127 0" result="hardAlpha"/>
<feOffset dy="1"/>
<feComposite in2="hardAlpha" operator="out"/>
<feColorMatrix type="matrix" values="0 0 0 0 0 0 0 0 0 0 0 0 0 0 0 0 0 0 0.15 0"/>
<feBlend mode="normal" in2="BackgroundImageFix" result="effect1_dropShadow_40_9"/>
<feBlend mode="normal" in="SourceGraphic" in2="effect1_dropShadow_40_9" result="shape"/>
</filter>
<linearGradient id="paint0_linear_40_9" x1="16" y1="0" x2="16" y2="32" gradientUnits="userSpaceOnUse">
<stop stop-color="#46F4FF"/>
<stop offset="1" stop-color="#228FCC"/>
</linearGradient>
<linearGradient id="paint1_linear_40_9" x1="16.3337" y1="8.33325" x2="16.3337" y2="24.3333" gradientUnits="userSpaceOnUse">
<stop stop-color="white"/>
<stop offset="1" stop-color="#FFF7C8"/>
</linearGradient>
<clipPath id="clip0_40_9">
<rect width="18" height="18" fill="white" transform="translate(7.00024 7)"/>
</clipPath>
</defs>
</svg>
