<svg width="50" height="50" viewBox="0 0 50 50" fill="none" xmlns="http://www.w3.org/2000/svg">
<g filter="url(#filter0_i_19_8833)">
<circle cx="25" cy="25" r="25" fill="url(#paint0_linear_19_8833)"/>
</g>
<ellipse cx="15.3959" cy="10.4672" rx="6.34286" ry="3.80572" transform="rotate(-30 15.3959 10.4672)" fill="white" fill-opacity="0.7"/>
<ellipse cx="36.0177" cy="41.3876" rx="4.30322" ry="2.58193" transform="rotate(-30 36.0177 41.3876)" fill="white" fill-opacity="0.3"/>
<g filter="url(#filter1_d_19_8833)">
<path d="M24.3592 36.2944C23.2873 35.0359 21.4981 33.6898 19.7652 32.8382C18.0156 31.9782 16.3536 31.5005 14.4667 31.3158C14.0947 31.2797 13.7863 31.2461 13.7813 31.2413C13.7765 31.2413 13.7861 27.3569 13.8054 22.6203L13.8371 14.0084L14.1807 14.0421C16.29 14.2513 18.6444 15.0483 20.4257 16.1592C21.9609 17.1164 23.5462 18.5945 24.5569 20.0108L24.8112 20.3673V28.5477C24.8112 33.0467 24.792 36.7271 24.7689 36.7264C24.7449 36.7256 24.5608 36.5311 24.3592 36.2944ZM26.1066 28.527V20.3124L26.5978 19.6561C27.2249 18.8182 28.4864 17.5558 29.3205 16.9317C31.5503 15.2629 33.9691 14.3199 36.7459 14.0361L37.0982 14V22.6239V31.248L36.6896 31.2865C32.823 31.6463 29.4709 33.2415 26.849 35.9693L26.1066 36.7418V28.527ZM28.5022 36.1833C30.0198 34.7595 32.0288 33.6282 34.0469 33.0604C35.1029 32.7634 36.4762 32.5561 37.3878 32.5561C37.8658 32.5561 38.1309 32.4527 38.2805 32.2071C38.393 32.0219 38.3942 31.9423 38.3945 24.9543L38.3947 17.8879L38.6061 17.9264C38.7222 17.9505 39.0521 18.0419 39.3388 18.1332L39.8602 18.2992V27.1181C39.8602 31.9685 39.841 35.937 39.8172 35.937C39.7931 35.937 39.4447 35.8625 39.0421 35.7711C37.4514 35.4127 36.1414 35.2896 34.4209 35.336C32.334 35.3937 30.7121 35.6848 28.7841 36.3509L28.0513 36.6042L28.5022 36.1833ZM22.0763 36.3204C21.2756 36.0337 19.9533 35.6958 19.0607 35.5501C17.8469 35.3529 17.0095 35.3004 15.5219 35.3336C14.0439 35.3649 13.1498 35.4683 11.9302 35.7451C11.5892 35.8221 11.2404 35.9014 11.1551 35.9183L11.0002 35.952L11.0005 27.1095L11.0008 18.2667L11.6629 18.0743C12.027 17.9685 12.3566 17.8699 12.3954 17.8579C12.4514 17.8338 12.4659 19.2744 12.4659 24.9163C12.4659 32.6261 12.449 32.1963 12.778 32.4125C12.8925 32.4871 13.1303 32.5207 13.8096 32.5616C16.5091 32.7155 19.0706 33.622 21.1617 35.1643C21.6127 35.4969 22.6949 36.4103 22.7569 36.5106C22.8002 36.5804 22.7713 36.5732 22.0765 36.323L22.0763 36.3204Z" fill="url(#paint1_linear_19_8833)"/>
</g>
<defs>
<filter id="filter0_i_19_8833" x="0" y="0" width="50" height="50" filterUnits="userSpaceOnUse" color-interpolation-filters="sRGB">
<feFlood flood-opacity="0" result="BackgroundImageFix"/>
<feBlend mode="normal" in="SourceGraphic" in2="BackgroundImageFix" result="shape"/>
<feColorMatrix in="SourceAlpha" type="matrix" values="0 0 0 0 0 0 0 0 0 0 0 0 0 0 0 0 0 0 127 0" result="hardAlpha"/>
<feOffset/>
<feGaussianBlur stdDeviation="2.5"/>
<feComposite in2="hardAlpha" operator="arithmetic" k2="-1" k3="1"/>
<feColorMatrix type="matrix" values="0 0 0 0 1 0 0 0 0 0.953757 0 0 0 0 0.537565 0 0 0 1 0"/>
<feBlend mode="normal" in2="shape" result="effect1_innerShadow_19_8833"/>
</filter>
<filter id="filter1_d_19_8833" x="11.0002" y="14" width="28.86" height="23.7417" filterUnits="userSpaceOnUse" color-interpolation-filters="sRGB">
<feFlood flood-opacity="0" result="BackgroundImageFix"/>
<feColorMatrix in="SourceAlpha" type="matrix" values="0 0 0 0 0 0 0 0 0 0 0 0 0 0 0 0 0 0 127 0" result="hardAlpha"/>
<feOffset dy="1"/>
<feComposite in2="hardAlpha" operator="out"/>
<feColorMatrix type="matrix" values="0 0 0 0 0 0 0 0 0 0 0 0 0 0 0 0 0 0 0.15 0"/>
<feBlend mode="normal" in2="BackgroundImageFix" result="effect1_dropShadow_19_8833"/>
<feBlend mode="normal" in="SourceGraphic" in2="effect1_dropShadow_19_8833" result="shape"/>
</filter>
<linearGradient id="paint0_linear_19_8833" x1="25" y1="0" x2="25" y2="50" gradientUnits="userSpaceOnUse">
<stop stop-color="#F3F742"/>
<stop offset="1" stop-color="#3AB01C"/>
</linearGradient>
<linearGradient id="paint1_linear_19_8833" x1="25.4302" y1="14" x2="25.4302" y2="36.7418" gradientUnits="userSpaceOnUse">
<stop stop-color="white"/>
<stop offset="1" stop-color="#FFF7C8"/>
</linearGradient>
</defs>
</svg>
