<svg width="26" height="26" viewBox="0 0 26 26" fill="none" xmlns="http://www.w3.org/2000/svg">
<g clip-path="url(#clip0_9_6690)">
<path d="M13 26C20.1797 26 26 20.1797 26 13C26 5.8203 20.1797 0 13 0C5.8203 0 0 5.8203 0 13C0 20.1797 5.8203 26 13 26Z" fill="#0088CC"/>
<path fill-rule="evenodd" clip-rule="evenodd" d="M7.53058 6H18.4876C18.9063 6 19.2553 6.06987 19.674 6.27948C20.1625 6.48908 20.4417 6.83843 20.5813 7.1179C20.5813 7.1179 20.5813 7.18777 20.6511 7.18777C20.8604 7.53712 21 7.95633 21 8.44541C21 8.86463 20.9302 9.28384 20.6511 9.70306L13.7419 21.5808C13.6023 21.8603 13.3231 22 12.9742 22C12.695 22 12.4159 21.8603 12.2065 21.5808L5.43689 9.70306C5.29731 9.42358 5.01815 9.07424 5.01815 8.51528C4.94836 8.0262 5.08794 7.60699 5.29731 7.18777C5.50668 6.76856 5.85563 6.41921 6.34416 6.27948C6.7629 6 7.25143 6 7.53058 6ZM12.1367 7.67686H7.53058C7.25143 7.67686 7.11185 7.67686 7.04206 7.74672C6.90248 7.81659 6.83269 7.88646 6.7629 8.0262C6.69311 8.09607 6.69311 8.23581 6.69311 8.37555C6.69311 8.44541 6.7629 8.51528 6.90248 8.79476L12.1367 17.8777V7.67686ZM13.8117 7.67686V17.9476L19.1157 8.79476C19.1855 8.65502 19.1855 8.51528 19.1855 8.37555C19.1855 8.23581 19.1855 8.09607 19.1157 8.0262C19.0459 7.95633 19.0459 7.88646 18.9761 7.88646L18.9063 7.81659C18.7667 7.74673 18.6271 7.74672 18.4178 7.74672H13.8117V7.67686Z" fill="white"/>
</g>
<defs>
<clipPath id="clip0_9_6690">
<rect width="26" height="26" fill="white"/>
</clipPath>
</defs>
</svg>
