<svg width="50" height="50" viewBox="0 0 50 50" fill="none" xmlns="http://www.w3.org/2000/svg">
<g filter="url(#filter0_i_40_10)">
<circle cx="25" cy="25" r="25" fill="url(#paint0_linear_40_10)"/>
</g>
<ellipse cx="15.3959" cy="10.4672" rx="6.34286" ry="3.80572" transform="rotate(-30 15.3959 10.4672)" fill="white" fill-opacity="0.7"/>
<ellipse cx="36.0177" cy="41.3876" rx="4.30322" ry="2.58193" transform="rotate(-30 36.0177 41.3876)" fill="white" fill-opacity="0.3"/>
<g filter="url(#filter1_d_40_10)">
<path d="M26.1094 10.7396C25.4376 10.2917 24.5624 10.2917 23.8906 10.7396L10.8906 19.4063C10.3342 19.7772 10 20.4017 10 21.0704V23.17C10 24.7674 11.7803 25.7202 13.1094 24.8341L23.8906 17.6466C24.5624 17.1987 25.4376 17.1987 26.1094 17.6466L36.8906 24.8341C38.2197 25.7202 40 24.7674 40 23.17V21.0704C40 20.4017 39.6658 19.7772 39.1094 19.4063L26.1094 10.7396ZM26.1189 19.0698C25.4428 18.6134 24.5572 18.6134 23.8811 19.0698L16.0759 24.3382C15.525 24.7101 15.1948 25.3313 15.1948 25.9959V27.0325C15.1948 28.6351 16.9854 29.5868 18.3138 28.6902L23.8811 24.9322C24.5572 24.4758 25.4428 24.4758 26.1189 24.9322L31.6862 28.6902C33.0146 29.5868 34.8052 28.6351 34.8052 27.0325V25.9959C34.8052 25.3313 34.475 24.7101 33.9241 24.3382L26.1189 19.0698ZM26.1189 26.3425C25.4428 25.8861 24.5572 25.8861 23.8811 26.3425L20.1564 28.8567C19.6526 29.1967 19.3506 29.7648 19.3506 30.3726C19.3506 31.8334 20.9787 32.7047 22.1942 31.8944L23.8906 30.7635C24.5624 30.3156 25.4376 30.3156 26.1094 30.7635L27.8058 31.8944C29.0213 32.7047 30.6494 31.8334 30.6494 30.3726C30.6494 29.7648 30.3474 29.1967 29.8436 28.8567L26.1189 26.3425ZM26.1094 32.1682C25.4376 31.7203 24.5624 31.7203 23.8906 32.1682L20.125 34.6786C19.6412 35.0011 19.3506 35.544 19.3506 36.1254C19.3506 37.5143 20.8985 38.3426 22.0541 37.5723L23.8906 36.3479C24.5624 35.9 25.4376 35.9 26.1094 36.3479L27.9459 37.5723C29.1015 38.3426 30.6494 37.5143 30.6494 36.1254C30.6494 35.544 30.3588 35.0011 29.875 34.6786L26.1094 32.1682Z" fill="url(#paint1_linear_40_10)"/>
</g>
<defs>
<filter id="filter0_i_40_10" x="0" y="0" width="50" height="50" filterUnits="userSpaceOnUse" color-interpolation-filters="sRGB">
<feFlood flood-opacity="0" result="BackgroundImageFix"/>
<feBlend mode="normal" in="SourceGraphic" in2="BackgroundImageFix" result="shape"/>
<feColorMatrix in="SourceAlpha" type="matrix" values="0 0 0 0 0 0 0 0 0 0 0 0 0 0 0 0 0 0 127 0" result="hardAlpha"/>
<feOffset/>
<feGaussianBlur stdDeviation="2.5"/>
<feComposite in2="hardAlpha" operator="arithmetic" k2="-1" k3="1"/>
<feColorMatrix type="matrix" values="0 0 0 0 1 0 0 0 0 0.734646 0 0 0 0 0.425065 0 0 0 1 0"/>
<feBlend mode="normal" in2="shape" result="effect1_innerShadow_40_10"/>
</filter>
<filter id="filter1_d_40_10" x="10" y="10.4037" width="30" height="28.4635" filterUnits="userSpaceOnUse" color-interpolation-filters="sRGB">
<feFlood flood-opacity="0" result="BackgroundImageFix"/>
<feColorMatrix in="SourceAlpha" type="matrix" values="0 0 0 0 0 0 0 0 0 0 0 0 0 0 0 0 0 0 127 0" result="hardAlpha"/>
<feOffset dy="1"/>
<feComposite in2="hardAlpha" operator="out"/>
<feColorMatrix type="matrix" values="0 0 0 0 0 0 0 0 0 0 0 0 0 0 0 0 0 0 0.15 0"/>
<feBlend mode="normal" in2="BackgroundImageFix" result="effect1_dropShadow_40_10"/>
<feBlend mode="normal" in="SourceGraphic" in2="effect1_dropShadow_40_10" result="shape"/>
</filter>
<linearGradient id="paint0_linear_40_10" x1="25" y1="0" x2="25" y2="50" gradientUnits="userSpaceOnUse">
<stop stop-color="#FFC121"/>
<stop offset="1" stop-color="#FE6C1E"/>
</linearGradient>
<linearGradient id="paint1_linear_40_10" x1="25" y1="10" x2="25" y2="39.3745" gradientUnits="userSpaceOnUse">
<stop stop-color="white"/>
<stop offset="1" stop-color="#FFF7C8"/>
</linearGradient>
</defs>
</svg>
