<svg width="13" height="13" viewBox="0 0 13 13" fill="none" xmlns="http://www.w3.org/2000/svg">
<g clip-path="url(#clip0_30_991)">
<path fill-rule="evenodd" clip-rule="evenodd" d="M3.25 5.5V4C3.25 3.13805 3.59241 2.31139 4.20191 1.70191C4.81139 1.09241 5.63805 0.75 6.5 0.75C7.36195 0.75 8.1886 1.09241 8.7981 1.70191C9.4076 2.31139 9.75 3.13805 9.75 4V5.5H10C10.8285 5.5 11.5 6.17155 11.5 7V10.5C11.5 11.3285 10.8285 12 10 12H3C2.17158 12 1.5 11.3285 1.5 10.5V7C1.5 6.17155 2.17158 5.5 3 5.5H3.25ZM5.26257 2.76256C5.59075 2.43437 6.03585 2.25 6.5 2.25C6.96415 2.25 7.40925 2.43437 7.73745 2.76256C8.06565 3.09075 8.25 3.53587 8.25 4V5.5H4.75V4C4.75 3.53587 4.93438 3.09075 5.26257 2.76256Z" fill="#ECE4DD"/>
</g>
<defs>
<clipPath id="clip0_30_991">
<rect width="12" height="12" fill="white" transform="translate(0.5 0.5)"/>
</clipPath>
</defs>
</svg>
